<?xml version="1.0" encoding="UTF-8" standalone="no"?>
<svg
   xmlns:dc="http://purl.org/dc/elements/1.1/"
   xmlns:cc="http://creativecommons.org/ns#"
   xmlns:rdf="http://www.w3.org/1999/02/22-rdf-syntax-ns#"
   xmlns:svg="http://www.w3.org/2000/svg"
   xmlns="http://www.w3.org/2000/svg"
   viewBox="0 0 1456 435.41467"
   height="435.41467"
   width="1456"
   xml:space="preserve"
   id="svg2"
   version="1.1"><metadata
     id="metadata8"><rdf:RDF><cc:Work
         rdf:about=""><dc:format>image/svg+xml</dc:format><dc:type
           rdf:resource="http://purl.org/dc/dcmitype/StillImage" /></cc:Work></rdf:RDF></metadata><defs
     id="defs6"><clipPath
       id="clipPath18"
       clipPathUnits="userSpaceOnUse"><path
         id="path16"
         d="M 0,0 H 1092 V 326.561 H 0 Z" /></clipPath></defs><g
     transform="matrix(1.3333333,0,0,-1.3333333,0,435.41467)"
     id="g10"><g
       id="g12"><g
         clip-path="url(#clipPath18)"
         id="g14"><g
           transform="translate(77.9403,157.2734)"
           id="g20"><path
             id="path22"
             style="fill:#a5c694;fill-opacity:1;fill-rule:nonzero;stroke:none"
             d="m 0,0 c 2.936,-0.055 5.099,1.401 6.759,3.638 0.869,1.169 1.272,2.57 1.268,4.093 -0.019,13.566 0,27.127 -0.037,40.693 -0.004,0.821 0.288,1.549 0.347,2.337 0.052,0.732 -0.288,1.527 0.296,2.185 0,1.183 0.082,2.37 -0.018,3.545 -0.159,1.893 -0.196,3.835 -0.928,5.62 -0.414,1.006 -0.78,2.026 -1.339,2.999 -1.013,1.76 -2.096,3.464 -3.272,5.11 -0.632,0.88 -1.29,1.752 -2.026,2.547 -1.117,1.205 -2.274,2.377 -3.487,3.487 -1.246,1.142 -2.521,2.277 -3.9,3.246 -0.747,0.529 -1.453,1.135 -2.259,1.593 -0.751,0.426 -1.439,0.98 -2.208,1.372 -1.371,0.691 -2.78,1.202 -4.344,1.442 -2.333,0.362 -4.651,0.163 -6.969,0.27 -0.278,0.015 -0.54,0.189 -0.817,0.255 -0.193,0.044 -0.481,0.122 -0.585,0.03 -0.58,-0.522 -1.26,-0.267 -1.889,-0.281 -1.645,-0.037 -3.291,0.051 -4.932,-0.03 -2.766,-0.129 -5.287,0.666 -7.709,1.875 -1.697,0.843 -3.261,1.9 -4.722,3.128 -3.845,3.227 -7.147,7.01 -10.759,10.474 -1.15,1.102 -2.237,2.27 -3.387,3.372 -1.911,1.826 -3.959,3.509 -6.071,5.091 -1.016,0.758 -2.166,1.394 -3.309,2.015 -1.682,0.91 -3.42,1.694 -5.18,2.385 -2.103,0.832 -3.996,2.022 -5.986,3.043 -0.125,0.066 -0.277,0.081 -0.477,0.137 v 4.381 c 0.733,0.459 1.483,0.98 2.278,1.409 1.142,0.617 2.396,0.972 3.653,1.224 1.416,0.284 2.769,0.772 4.174,1.098 1.823,0.417 3.579,1.087 5.432,1.401 0.946,0.159 1.874,0.433 2.806,0.665 0.695,0.174 1.379,0.415 2.081,0.544 0.825,0.152 1.705,0.092 2.481,0.355 0.788,0.27 1.598,0.107 2.337,0.314 0.791,0.218 1.56,0.263 2.352,0.266 0.82,0.008 1.645,0 2.466,0 0.82,0 1.645,0.041 2.466,-0.007 1.445,-0.085 2.906,-0.196 4.333,-0.366 1.775,-0.211 3.586,-0.451 5.317,-0.898 2.813,-0.725 5.635,-1.431 8.341,-2.552 1.982,-0.817 3.952,-1.641 5.834,-2.658 1.653,-0.895 3.25,-1.889 4.77,-3.017 1.068,-0.791 1.996,-1.704 2.899,-2.647 1.645,-1.72 3.12,-3.945 4.085,-6.936 0.581,-1.805 0.969,-3.594 0.902,-5.487 -0.037,-1.024 0.074,-2.063 -0.029,-3.08 -0.126,-1.276 0.259,-2.485 0.373,-3.723 0.111,-1.176 0.47,-2.359 0.91,-3.465 0.525,-1.327 1.198,-2.61 2.055,-3.767 0.507,-0.681 1.021,-1.372 1.646,-1.934 0.872,-0.791 1.811,-1.52 2.787,-2.181 0.932,-0.629 1.742,-1.376 2.47,-2.204 1.261,-1.442 2.844,-2.496 4.456,-3.424 0.994,-0.569 2.181,-1.046 3.438,-0.983 0.307,0.015 0.618,0.018 0.924,0 2.023,-0.133 3.627,0.761 5.243,1.878 1.734,1.194 2.721,2.891 3.783,4.592 1.501,2.418 2.983,4.844 4.588,7.191 1.405,2.063 2.969,4.012 4.448,6.027 0.939,1.287 2.022,2.455 3.032,3.682 2.34,2.851 5.102,5.28 7.66,7.913 2.577,2.651 5.262,5.202 7.824,7.871 1.379,1.439 2.61,3.017 3.405,4.899 0.832,1.978 0.876,4.019 0.547,6.034 -0.458,2.766 -1.752,5.147 -3.009,7.55 -1.072,2.045 -0.891,4.027 -0.111,6.049 0.429,1.106 0.887,2.207 1.423,3.261 0.592,1.15 1.283,2.248 1.941,3.361 0.98,1.664 2.16,3.202 3.528,4.533 1.641,1.597 3.479,2.976 5.501,4.141 1.243,0.721 2.518,1.394 3.779,2.07 1.941,1.047 3.841,2.152 5.712,3.31 1.276,0.791 2.511,1.652 3.746,2.503 1.083,0.743 2.155,1.508 3.213,2.288 0.595,0.444 1.127,0.976 1.734,1.402 0.687,0.48 1.412,0.743 2.325,0.735 7.964,-0.051 15.928,-0.029 23.966,-0.029 1.139,-1.416 2.892,-1.997 4.434,-2.892 2.107,-1.223 4.348,-2.214 6.381,-3.571 0.551,-0.37 1.187,-0.603 1.782,-0.906 1.823,-0.935 3.683,-1.804 5.457,-2.821 2.112,-1.216 4.304,-2.289 6.397,-3.531 2.019,-1.198 4.189,-2.119 6.111,-3.512 1.169,-0.851 2.089,-1.916 3.084,-2.914 0.399,-0.407 0.662,-1.117 0.666,-1.693 0.003,-0.514 -0.326,-1.132 -0.696,-1.527 -1.179,-1.272 -2.639,-2.078 -4.325,-2.563 -0.947,-0.273 -1.868,-0.258 -2.81,-0.273 -2.215,-0.037 -4.297,-0.581 -6.356,-1.409 -2.389,-0.957 -4.736,-1.985 -6.981,-3.231 -1.674,-0.932 -3.39,-1.782 -4.991,-2.862 -1.194,-0.806 -2.459,-1.52 -3.634,-2.366 -1.346,-0.969 -2.688,-1.945 -4.042,-2.899 -1.519,-1.069 -2.928,-2.278 -4.488,-3.294 -1.113,-0.725 -2.085,-1.66 -3.139,-2.481 -2.23,-1.738 -4.555,-3.339 -6.907,-4.903 -2.159,-1.434 -4.448,-2.629 -6.807,-3.668 -2.351,-1.039 -4.773,-1.911 -7.291,-2.503 -1.138,-0.266 -2.336,-0.358 -3.423,-0.68 -1.05,-0.311 -2.104,0.055 -3.08,-0.351 -0.987,-0.411 -2.008,-0.1 -3.01,-0.174 -0.373,-0.026 -0.828,-0.196 -1.128,0.233 -2.462,0.392 -4.921,0.954 -7.42,0.632 -0.758,-0.096 -1.557,-0.14 -2.3,-0.37 -0.773,-0.236 -1.531,-0.521 -2.281,-0.82 -0.703,-0.285 -1.405,-0.577 -2.078,-0.932 -0.68,-0.355 -1.346,-0.747 -1.974,-1.191 -2.237,-1.571 -4.252,-3.416 -6.034,-5.472 -0.858,-0.994 -1.782,-1.919 -2.648,-2.895 -1.682,-1.904 -3.483,-3.708 -4.917,-5.823 -0.418,-0.614 -0.913,-1.176 -1.412,-1.727 -1.749,-1.93 -3.128,-4.133 -4.607,-6.263 -0.633,-0.913 -1.198,-1.878 -1.86,-2.769 -0.695,-0.936 -1.176,-1.997 -1.767,-2.98 -1.343,-2.245 -2.522,-4.596 -3.613,-6.973 -0.691,-1.509 -1.405,-3.017 -1.996,-4.567 -0.577,-1.512 -1.298,-2.976 -1.79,-4.496 -0.665,-2.04 -1.523,-4.004 -2.118,-6.063 -0.2,-0.695 -0.289,-1.424 -0.422,-2.137 C 15.717,54.288 16.353,50.905 15.984,47.581 15.573,43.917 15.81,40.264 15.74,36.607 15.669,32.906 15.725,29.209 15.725,25.508 15.725,21.811 15.74,18.109 15.71,14.412 15.703,13.68 15.499,12.955 15.422,12.227 15.348,11.543 15.325,10.874 15.17,10.182 14.93,9.106 15.178,7.931 15.092,6.807 14.867,3.819 16.094,1.294 17.633,-1.08 c 0.783,-1.212 1.837,-2.296 2.939,-3.238 0.75,-0.64 1.697,-1.405 2.873,-0.629 0.144,0.096 0.399,0.015 0.602,0.015 -1.172,-1.664 -1.907,-3.446 -1.867,-5.55 0.067,-3.542 0.019,-7.088 0.019,-10.63 v -10.63 c 0,-3.593 0.051,-7.187 -0.015,-10.781 -0.07,-3.501 0.325,-7.017 -0.292,-10.504 -0.226,-1.264 0.307,-2.474 0.307,-3.723 0,-0.851 0.48,-2.44 0.872,-3.49 0.91,-2.456 2.792,-4.093 4.677,-5.739 -0.074,-0.122 -0.114,-0.288 -0.221,-0.362 -1.087,-0.788 -1.187,-1.971 -1.331,-3.158 -0.071,-0.576 0.284,-1.05 0.295,-1.567 0.034,-1.453 0.707,-2.699 1.291,-3.938 0.51,-1.083 1.294,-2.045 2.004,-3.024 1.471,-2.015 2.98,-4.001 4.459,-6.012 0.746,-1.021 1.438,-2.078 2.185,-3.099 1.183,-1.619 2.396,-3.216 3.586,-4.832 0.958,-1.294 1.893,-2.603 2.84,-3.908 0.942,-1.301 1.882,-2.61 2.828,-3.912 1.006,-1.379 2.015,-2.762 3.028,-4.133 1.021,-1.379 2.086,-2.725 3.058,-4.13 0.717,-1.043 1.527,-2.012 2.218,-3.08 0.751,-1.154 1.712,-2.17 2.585,-3.246 0.872,-1.076 1.771,-2.152 2.566,-3.269 1.227,-1.719 2.636,-3.29 3.874,-4.999 1.065,-1.475 2.341,-2.81 3.335,-4.329 1.058,-1.616 1.805,-3.416 1.771,-5.413 -0.007,-0.68 -0.147,-1.364 -0.306,-2.026 -0.108,-0.459 -0.363,-0.876 -0.529,-1.32 -0.555,-1.479 -1.154,-2.947 -1.305,-4.544 -0.921,-0.222 -1.83,0.126 -2.618,0.388 -1.154,0.392 -2.351,0.68 -3.501,0.773 -1.291,0.103 -2.559,0.399 -3.871,0.399 -30.696,-0.022 -61.391,-0.018 -92.09,-0.015 -2.085,0 -4.026,-0.502 -5.827,-1.545 0,0.41 0.063,0.835 -0.014,1.231 -0.13,0.654 -0.252,1.342 -0.551,1.923 -0.762,1.49 -1.154,3.061 -1.269,4.706 -0.022,0.363 0.281,0.74 0.274,1.106 -0.026,1.017 0.381,1.882 0.795,2.758 1.268,2.699 3.154,4.988 4.903,7.365 0.979,1.342 1.97,2.673 2.95,4.015 0.947,1.302 1.875,2.614 2.821,3.916 1.006,1.383 2.026,2.754 3.036,4.134 0.954,1.297 1.896,2.602 2.843,3.904 1.006,1.383 2.008,2.765 3.017,4.141 0.987,1.342 1.993,2.666 2.969,4.011 0.976,1.339 1.952,2.674 2.88,4.045 1.032,1.516 2.093,3.021 2.976,4.622 0.818,1.472 1.727,2.877 2.581,4.318 0.998,1.686 2.185,3.239 3.446,4.729 0.629,0.744 1.339,1.424 2.067,2.071 1.342,1.198 1.76,2.762 1.889,4.463 0.03,0.384 -0.162,0.831 0.281,1.112 0.204,1.734 -0.643,3.339 -2.44,3.265 0.477,0.514 0.861,1.25 1.449,1.486 0.744,0.3 1.013,1.039 1.749,1.354 0.662,0.284 1.106,1.094 1.597,1.73 0.814,1.046 1.457,2.148 2.052,3.324 0.622,1.224 0.725,2.57 1.136,3.841 0.195,0.607 -0.008,1.328 0.044,1.993 0.052,0.677 0.273,1.35 0.285,2.03 0.033,2.821 0.011,5.646 0.011,8.471 v 8.474 8.319 c 0,2.821 0.055,5.649 -0.015,8.471 -0.067,2.78 0.262,5.568 -0.263,8.352 C 1.305,-9.188 1.542,-7.724 1.309,-6.256 1.083,-4.858 0.935,-3.435 0.592,-2.063 0.418,-1.375 0.429,-0.617 0,0" /></g><g
           transform="translate(36.0108,16.9951)"
           id="g24"><path
             id="path26"
             style="fill:#47478c;fill-opacity:1;fill-rule:nonzero;stroke:none"
             d="M 0,0 C 1.804,1.039 3.742,1.545 5.831,1.545 36.526,1.538 67.225,1.538 97.92,1.557 c 1.309,0 2.577,-0.296 3.871,-0.4 1.146,-0.088 2.348,-0.381 3.501,-0.769 0.788,-0.266 1.694,-0.614 2.614,-0.388 0.082,-0.104 0.141,-0.255 0.248,-0.299 1.213,-0.544 2.459,-1.017 3.646,-1.609 1.194,-0.602 2.451,-1.02 3.693,-1.497 1.435,-0.551 2.747,-0.296 4.09,0.31 1.475,0.67 2.451,1.879 3.405,3.084 0.469,0.591 0.739,1.338 0.665,2.192 -0.07,0.843 -0.366,1.601 -0.706,2.333 -1.124,2.411 -2.817,4.441 -4.559,6.423 -0.369,0.425 -0.854,0.758 -1.183,1.209 -1.224,1.693 -2.344,3.464 -3.62,5.113 -1.464,1.897 -2.773,3.901 -4.222,5.805 -0.436,0.573 -0.776,1.224 -1.209,1.804 -0.991,1.339 -2.052,2.629 -3.013,3.99 -1.313,1.859 -2.485,3.819 -3.857,5.631 -1.737,2.299 -3.364,4.677 -5.091,6.984 -1.079,1.442 -2.104,2.924 -3.161,4.385 -0.832,1.146 -1.723,2.252 -2.488,3.438 -0.821,1.28 -1.764,2.459 -2.666,3.672 -0.836,1.124 -1.486,2.392 -2.377,3.468 -1.35,1.627 -2.515,3.387 -3.742,5.091 -1.815,2.533 -3.527,5.136 -5.465,7.587 -1.094,1.39 -2.251,2.67 -3.712,3.653 -0.909,0.614 -1.763,1.353 -2.906,1.534 -1.886,1.646 -3.768,3.284 -4.677,5.739 -0.388,1.05 -0.869,2.64 -0.869,3.49 -0.004,1.25 -0.532,2.455 -0.311,3.723 0.618,3.487 0.226,6.999 0.293,10.501 0.07,3.593 0.014,7.191 0.014,10.785 v 10.629 c 0,3.542 0.048,7.084 -0.018,10.627 -0.037,2.103 0.695,3.885 1.871,5.549 0.898,1.32 1.449,2.769 1.904,4.308 0.285,0.957 0.514,1.937 0.784,2.898 0.277,0.987 0.373,2.049 0.377,3.08 0.029,7.757 -0.019,15.518 0.037,23.275 0.018,2.414 0.917,4.581 2.691,6.263 0.762,0.725 1.679,1.29 2.611,1.838 2.111,1.242 4.266,2.395 6.337,3.715 2.448,1.561 4.858,3.173 7.265,4.792 0.688,0.466 1.56,0.721 2.477,0.721 1.298,0 2.492,-0.122 3.676,-0.835 1.308,-0.788 2.118,-1.916 2.632,-3.225 0.481,-1.216 0.795,-2.525 0.669,-3.893 -0.074,-0.765 0.026,-1.542 -0.026,-2.311 -0.048,-0.68 -0.125,-1.371 -0.31,-2.026 -0.388,-1.346 -0.995,-2.599 -1.912,-3.675 -1.597,-1.886 -3.745,-2.921 -5.986,-3.775 -2.163,-0.824 -3.719,-2.34 -5.032,-4.167 -0.336,-1.405 -0.939,-2.747 -0.935,-4.237 0.007,-23.175 -0.011,-46.346 0.033,-69.521 0.004,-2.022 0.547,-3.996 1.298,-5.923 0.858,-2.185 2.24,-4.022 3.512,-5.945 1.339,-2.026 2.762,-4.004 4.197,-5.949 1.309,-1.775 2.529,-3.631 3.963,-5.32 0.751,-0.88 1.309,-1.923 1.986,-2.87 0.85,-1.194 1.73,-2.37 2.614,-3.542 1.734,-2.303 3.427,-4.643 5.076,-7.002 1.302,-1.864 2.625,-3.724 3.912,-5.598 0.969,-1.405 1.945,-2.84 3.087,-4.141 0.891,-1.021 1.601,-2.204 2.389,-3.317 0.957,-1.353 1.893,-2.713 2.865,-4.052 0.98,-1.349 2.004,-2.662 2.991,-4.004 1.013,-1.375 1.997,-2.769 3.002,-4.152 0.947,-1.305 1.908,-2.603 2.859,-3.905 1.009,-1.379 2.011,-2.761 3.028,-4.141 0.902,-1.22 1.878,-2.388 2.706,-3.66 1.013,-1.56 2.207,-2.98 3.298,-4.485 1.557,-2.148 3.102,-4.296 3.786,-6.91 0.207,-0.791 0.51,-1.575 0.451,-2.44 -0.059,-0.869 -0.011,-1.745 -0.011,-2.622 -0.007,-1.645 -0.684,-3.054 -1.39,-4.51 -0.836,-1.72 -2.059,-3.062 -3.439,-4.263 -1.379,-1.202 -2.81,-2.363 -4.651,-2.903 -0.514,-0.151 -0.983,-0.159 -1.464,-0.163 -8.788,-0.014 -17.573,-0.011 -26.358,-0.011 -4.418,-0.621 -8.855,-0.225 -13.285,-0.292 -4.47,-0.07 -8.94,-0.014 -13.41,-0.014 H 62.718 49.307 35.897 22.487 8.922 -4.489 c -4.47,0 -8.94,-0.063 -13.41,0.029 -2.081,0.041 -4.163,0.333 -6.119,1.194 -1.604,0.707 -3.087,1.598 -4.418,2.722 -0.954,0.802 -1.645,1.845 -2.292,2.898 -0.422,0.692 -0.825,1.39 -1.039,2.193 -0.104,0.388 -0.585,2.074 -0.607,2.366 -0.251,2.88 0.714,5.457 1.952,7.979 1.572,3.198 3.494,6.197 5.509,9.11 1.195,1.723 2.382,3.483 3.746,5.099 0.876,1.035 1.575,2.218 2.362,3.331 1.213,1.708 2.437,3.409 3.65,5.117 0.732,1.028 1.449,2.071 2.181,3.102 1.013,1.431 2.015,2.873 3.058,4.282 1.194,1.615 2.366,3.242 3.575,4.847 1.165,1.545 2.089,3.283 3.313,4.773 1.346,1.638 2.529,3.391 3.738,5.11 1.113,1.579 2.289,3.131 3.379,4.732 0.958,1.409 1.938,2.844 3.08,4.145 0.895,1.02 1.601,2.207 2.389,3.32 0.953,1.35 1.904,2.707 2.865,4.053 0.991,1.39 1.985,2.776 2.995,4.152 1.246,1.697 2.521,3.372 3.756,5.076 1.383,1.912 2.759,3.819 3.653,6.038 0.562,1.386 0.902,2.817 1.257,4.263 0.374,1.512 0.259,3.006 0.263,4.507 0.015,22.043 0,44.083 0.018,66.126 0.004,3.879 -1.667,6.77 -4.858,8.87 -1.287,0.847 -2.695,1.472 -3.956,2.396 -0.832,0.607 -1.442,1.398 -2.233,2.015 -1.202,0.936 -1.915,2.219 -2.529,3.576 -0.052,0.118 -0.614,2.255 -0.614,2.362 0,0.414 0.019,0.825 -0.004,1.235 -0.118,2.067 0.533,3.949 1.568,5.664 0.758,1.25 1.782,2.326 3.061,3.091 0.858,0.514 1.834,0.466 2.736,0.178 1.956,-0.625 3.687,-1.657 5.228,-3.025 0.729,-0.647 1.505,-1.283 2.359,-1.734 2.204,-1.168 4.293,-2.525 6.474,-3.719 1.893,-1.039 3.694,-2.189 5.254,-3.705 1.365,-1.327 2.182,-2.954 2.81,-4.699 0.13,-0.363 0.052,-0.795 0.115,-1.187 0.096,-0.584 0.222,-1.135 0.026,-1.756 -0.189,-0.592 0.1,-1.272 -0.311,-1.886 -0.166,-0.251 -0.029,-0.702 -0.029,-1.061 0,-5.036 0.022,-10.072 -0.008,-15.107 -0.015,-1.949 0.592,-3.712 1.387,-5.443 0.417,-0.906 0.82,-1.819 1.087,-2.784 0.429,-0.621 0.417,-1.375 0.591,-2.063 0.344,-1.375 0.496,-2.795 0.717,-4.193 0.233,-1.468 -0.003,-2.932 0.267,-4.348 0.521,-2.78 0.192,-5.568 0.262,-8.348 0.067,-2.825 0.015,-5.65 0.015,-8.475 v -8.319 -8.47 c 0,-2.825 0.018,-5.65 -0.015,-8.474 -0.007,-0.677 -0.229,-1.35 -0.284,-2.03 -0.049,-0.662 0.151,-1.387 -0.045,-1.989 -0.41,-1.272 -0.51,-2.622 -1.131,-3.846 -0.595,-1.172 -1.243,-2.273 -2.056,-3.32 -0.492,-0.636 -0.932,-1.445 -1.593,-1.73 -0.74,-0.318 -1.006,-1.058 -1.749,-1.353 -0.588,-0.237 -0.976,-0.973 -1.453,-1.487 -0.329,0.056 -0.603,-0.033 -0.788,-0.329 -0.151,-0.244 -0.262,-0.517 -0.44,-0.739 -0.972,-1.194 -1.978,-2.359 -2.932,-3.564 -0.969,-1.232 -1.871,-2.518 -2.843,-3.75 C 27.464,62.207 26.399,61.024 25.412,59.778 24.01,58.007 22.668,56.185 21.263,54.413 19.91,52.705 18.479,51.056 17.137,49.341 15.935,47.799 14.885,46.131 13.621,44.645 12.186,42.955 11.007,41.081 9.65,39.336 8.101,37.347 6.696,35.228 5.302,33.128 3.183,29.937 0.976,26.817 -1.176,23.655 c -1.046,-1.534 -2.189,-2.998 -3.257,-4.51 -0.936,-1.324 -1.827,-2.677 -2.939,-3.868 -0.544,-0.58 -1.11,-1.164 -1.513,-1.837 -0.95,-1.583 -2.31,-2.825 -3.412,-4.282 -0.662,-0.872 -1.479,-1.63 -2.196,-2.466 -1.383,-1.604 -1.709,-3.401 -1.528,-5.387 0.015,-0.174 0.204,-0.325 0.263,-0.506 0.566,-1.734 1.982,-2.659 3.468,-3.413 0.836,-0.425 1.819,-0.603 2.758,-0.762 1.246,-0.207 2.492,0.082 3.653,0.463 C -3.793,-2.222 -1.86,-1.172 0,0" /></g></g></g><text
       id="text32"
       style="font-variant:normal;font-weight:bold;font-stretch:normal;font-size:221.83940125px;font-family:Garamond;-inkscape-font-specification:Garamond-Bold;writing-mode:lr-tb;fill:#47478c;fill-opacity:1;fill-rule:nonzero;stroke:none"
       transform="matrix(1,0,0,-1,208.5298,82.6191)"><tspan
         id="tspan28"
         y="0"
         x="0 113.13809 217.18077 321.22345">Seed</tspan><tspan
         id="tspan30"
         y="0"
         x="443.6788 593.86407 656.20093">Kit</tspan></text>
<text
       id="text40"
       style="font-variant:normal;font-weight:normal;font-stretch:normal;font-size:51.76250076px;font-family:Garamond;-inkscape-font-specification:Garamond;writing-mode:lr-tb;fill:#47478c;fill-opacity:1;fill-rule:nonzero;stroke:none"
       transform="matrix(1,0,0,-1,208.5298,26.7725)"><tspan
         id="tspan34"
         y="0"
         x="0 24.794237 46.353317 58.206932 79.766014 106.16489 127.72397 149.28305 162.22368 196.17987 222.06113 247.42474 268.98383 289.99942 305.08817 316.94177 343.34067 369.73953 382.68018 416.63635 442 467.36362 479.21722 494.306 515.86505 528.80573 568.7146 590.29956 613.43738 634.99646 646.8501 673.24896 699.64783 739.5567 761.11578 787.51465">Science Education Equity Development</tspan><tspan
         id="tspan36"
         y="0"
         x="802.62933"> </tspan><tspan
         id="tspan38"
         y="0"
         x="815.72522 854.02948 865.88312">Kit</tspan></text>
</g></svg>