<?xml version="1.0" encoding="UTF-8" standalone="no"?>
<svg
   xmlns:dc="http://purl.org/dc/elements/1.1/"
   xmlns:cc="http://creativecommons.org/ns#"
   xmlns:rdf="http://www.w3.org/1999/02/22-rdf-syntax-ns#"
   xmlns:svg="http://www.w3.org/2000/svg"
   xmlns="http://www.w3.org/2000/svg"
   viewBox="0 0 386.508 576"
   height="576"
   width="386.508"
   xml:space="preserve"
   id="svg2"
   version="1.1"><metadata
     id="metadata8"><rdf:RDF><cc:Work
         rdf:about=""><dc:format>image/svg+xml</dc:format><dc:type
           rdf:resource="http://purl.org/dc/dcmitype/StillImage" /></cc:Work></rdf:RDF></metadata><defs
     id="defs6"><clipPath
       id="clipPath18"
       clipPathUnits="userSpaceOnUse"><path
         id="path16"
         d="M 0,432 H 289.881 V 0 H 0 Z" /></clipPath><clipPath
       id="clipPath26"
       clipPathUnits="userSpaceOnUse"><path
         id="path24"
         d="M 468.16,170.334 V 286.528" /></clipPath><clipPath
       id="clipPath34"
       clipPathUnits="userSpaceOnUse"><path
         id="path32"
         d="M 55.463,286.528 V 170.334" /></clipPath></defs><g
     transform="matrix(1.3333333,0,0,-1.3333333,0,576)"
     id="g10"><g
       id="g12"><g
         clip-path="url(#clipPath18)"
         id="g14"><g
           id="g20"><g
             clip-path="url(#clipPath26)"
             id="g22"><g
               id="g28"><g
                 clip-path="url(#clipPath34)"
                 id="g30"><g
                   transform="translate(70.3353,177.0365)"
                   id="g36"><path
                     id="path38"
                     style="fill:#a5c694;fill-opacity:1;fill-rule:nonzero;stroke:none"
                     d="m 0,0 c -0.741,0 -1.431,-0.179 -2.071,-0.549 0,0.146 0.022,0.297 -0.006,0.437 -0.046,0.233 -0.089,0.477 -0.195,0.684 -0.271,0.529 -0.41,1.088 -0.451,1.673 -0.008,0.129 0.1,0.263 0.097,0.393 -0.009,0.361 0.135,0.669 0.283,0.98 0.45,0.96 1.121,1.773 1.742,2.618 0.349,0.477 0.701,0.95 1.049,1.428 0.337,0.462 0.667,0.929 1.003,1.391 0.357,0.492 0.72,0.98 1.079,1.47 0.339,0.461 0.674,0.925 1.011,1.388 0.357,0.491 0.713,0.983 1.072,1.472 0.351,0.477 0.709,0.947 1.055,1.426" /></g><g
                   transform="translate(75.3059,256.2743)"
                   id="g40"><path
                     id="path42"
                     style="fill:#a5c694;fill-opacity:1;fill-rule:nonzero;stroke:none"
                     d="m 0,0 c -0.099,0.005 -0.192,0.067 -0.29,0.091 -0.069,0.015 -0.171,0.043 -0.208,0.01 -0.206,-0.185 -0.448,-0.094 -0.672,-0.1 -0.585,-0.013 -1.169,0.019 -1.753,-0.01 -0.983,-0.046 -1.879,0.236 -2.74,0.666 -0.603,0.3 -1.159,0.676 -1.679,1.112 -1.366,1.147 -2.54,2.492 -3.824,3.723 -0.409,0.392 -0.795,0.807 -1.204,1.199 -0.679,0.649 -1.408,1.247 -2.158,1.81 -0.361,0.269 -0.77,0.495 -1.176,0.716 -0.598,0.323 -1.216,0.602 -1.842,0.848 -0.747,0.295 -1.42,0.719 -2.127,1.081 -0.045,0.024 -0.099,0.029 -0.17,0.049 v 1.557 c 0.26,0.163 0.527,0.349 0.81,0.501 0.406,0.22 0.851,0.346 1.298,0.435 0.504,0.101 0.985,0.275 1.484,0.391 0.648,0.148 1.272,0.386 1.931,0.498 0.336,0.056 0.666,0.153 0.997,0.236 0.247,0.062 0.49,0.147 0.74,0.193 0.293,0.054 0.606,0.033 0.882,0.127 0.28,0.096 0.568,0.038 0.831,0.111 0.281,0.078 0.554,0.094 0.835,0.095 0.292,0.003 0.585,0 0.877,0 0.292,0 0.585,0.014 0.877,-0.003 0.514,-0.03 1.033,-0.069 1.54,-0.13 0.631,-0.075 1.275,-0.16 1.89,-0.319 1,-0.258 2.003,-0.509 2.965,-0.907 0.704,-0.29 1.405,-0.584 2.074,-0.945" /></g><g
                   transform="translate(75.8218,195.83)"
                   id="g44"><path
                     id="path46"
                     style="fill:#47478c;fill-opacity:1;fill-rule:nonzero;stroke:none"
                     d="m 0,0 c -0.481,-0.607 -0.99,-1.193 -1.467,-1.803 -0.427,-0.548 -0.8,-1.141 -1.25,-1.669 -0.51,-0.601 -0.929,-1.267 -1.411,-1.888 -0.551,-0.707 -1.05,-1.46 -1.546,-2.206 -0.753,-1.135 -1.537,-2.244 -2.302,-3.367 -0.372,-0.546 -0.778,-1.066 -1.158,-1.604 -0.333,-0.47 -0.649,-0.951 -1.045,-1.375 -0.193,-0.206 -0.394,-0.414 -0.538,-0.653 -0.337,-0.562 -0.821,-1.004 -1.213,-1.522 -0.235,-0.31 -0.525,-0.579 -0.78,-0.876 -0.492,-0.571 -0.608,-1.21 -0.543,-1.915 0.005,-0.062 0.072,-0.116 0.093,-0.18 0.201,-0.617 0.705,-0.945 1.233,-1.213 0.297,-0.152 0.647,-0.215 0.98,-0.271 0.443,-0.074 0.886,0.029 1.299,0.164 0.741,0.246 1.429,0.619 2.09,1.036" /></g><g
                   transform="translate(75.1975,235.4489)"
                   id="g48"><path
                     id="path50"
                     style="fill:#47478c;fill-opacity:1;fill-rule:nonzero;stroke:none"
                     d="M 0,0 C -0.457,0.301 -0.958,0.523 -1.406,0.852 -1.702,1.067 -1.919,1.348 -2.2,1.568 -2.627,1.9 -2.881,2.356 -3.099,2.839 c -0.018,0.042 -0.218,0.802 -0.218,0.84 0,0.147 0.006,0.293 -0.002,0.439 -0.042,0.734 0.19,1.403 0.558,2.013 0.269,0.444 0.633,0.827 1.088,1.099 0.305,0.183 0.652,0.165 0.972,0.063 C -0.005,7.071 0.61,6.704 1.158,6.218" /></g><g
                   transform="translate(76.2568,171.6657)"
                   id="g52"><path
                     id="path54"
                     style="fill:#47478c;fill-opacity:1;fill-rule:nonzero;stroke:none"
                     d="m 0,0 h -4.822 -4.767 c -1.589,0 -3.178,-0.022 -4.767,0.011 -0.74,0.014 -1.48,0.118 -2.175,0.424 -0.57,0.251 -1.097,0.568 -1.571,0.967 -0.339,0.286 -0.584,0.656 -0.814,1.031 -0.15,0.245 -0.293,0.494 -0.37,0.779 -0.037,0.138 -0.207,0.737 -0.215,0.841 -0.09,1.024 0.253,1.94 0.694,2.836 0.558,1.137 1.242,2.203 1.958,3.239 0.424,0.612 0.846,1.238 1.331,1.812 0.312,0.368 0.56,0.789 0.84,1.184 0.431,0.608 0.866,1.212 1.297,1.819 0.261,0.366 0.516,0.736 0.776,1.103 0.36,0.509 0.716,1.021 1.087,1.522 0.424,0.574 0.841,1.153 1.271,1.723 0.414,0.549 0.742,1.167 1.177,1.697 0.479,0.582 0.899,1.205 1.329,1.816 0.396,0.561 0.813,1.113 1.201,1.682 0.341,0.501 0.689,1.011 1.095,1.474 0.318,0.362 0.569,0.784 0.849,1.18 0.339,0.48 0.677,0.962 1.019,1.44 0.352,0.494 0.705,0.987 1.064,1.476 0.443,0.603 0.896,1.199 1.335,1.805 0.492,0.679 0.981,1.357 1.299,2.146" /></g><g
                   transform="translate(68.2634,176.4878)"
                   id="g56"><path
                     id="path58"
                     style="fill:#47478c;fill-opacity:1;fill-rule:nonzero;stroke:none"
                     d="M 0,0 C 0.641,0.369 1.33,0.549 2.073,0.549" /></g></g></g></g></g><g
           transform="translate(104.2957,205.6983)"
           id="g60"><path
             id="path62"
             style="fill:#a5c694;fill-opacity:1;fill-rule:nonzero;stroke:none"
             d="m 0,0 c 3.928,-0.074 6.823,1.875 9.044,4.868 1.163,1.564 1.702,3.439 1.697,5.477 -0.024,18.153 0,36.301 -0.049,54.454 -0.005,1.098 0.386,2.073 0.465,3.127 0.069,0.979 -0.386,2.043 0.396,2.924 0,1.583 0.109,3.171 -0.025,4.745 -0.213,2.533 -0.262,5.13 -1.242,7.52 -0.554,1.346 -1.044,2.711 -1.791,4.012 -1.356,2.355 -2.805,4.636 -4.379,6.838 -0.846,1.178 -1.726,2.345 -2.711,3.409 -1.494,1.613 -3.043,3.181 -4.665,4.666 -1.668,1.528 -3.375,3.047 -5.22,4.344 -1,0.707 -1.945,1.518 -3.023,2.132 -1.005,0.569 -1.925,1.311 -2.954,1.836 -1.835,0.925 -3.721,1.607 -5.813,1.929 -3.122,0.485 -6.224,0.218 -9.327,0.361 -0.371,0.02 -0.722,0.253 -1.093,0.342 -0.257,0.059 -0.643,0.163 -0.782,0.039 -0.777,-0.697 -1.687,-0.356 -2.528,-0.376 -2.202,-0.049 -4.403,0.069 -6.6,-0.039 -3.701,-0.174 -7.075,0.89 -10.316,2.508 -2.271,1.128 -4.364,2.543 -6.318,4.186 -5.145,4.319 -9.564,9.38 -14.398,14.016 -1.538,1.475 -2.993,3.038 -4.532,4.513 -2.557,2.444 -5.298,4.695 -8.124,6.812 -1.36,1.015 -2.899,1.866 -4.428,2.697 -2.251,1.217 -4.576,2.266 -6.931,3.191 -2.815,1.113 -5.349,2.706 -8.01,4.072 -0.169,0.089 -0.371,0.109 -0.639,0.183 v 5.863 c 0.98,0.613 1.984,1.311 3.048,1.885 1.529,0.826 3.206,1.301 4.888,1.638 1.895,0.381 3.706,1.034 5.586,1.469 2.439,0.559 4.789,1.455 7.268,1.875 1.267,0.213 2.509,0.579 3.755,0.891 0.931,0.232 1.846,0.554 2.786,0.727 1.103,0.203 2.281,0.124 3.32,0.475 1.054,0.361 2.137,0.144 3.127,0.421 1.058,0.291 2.088,0.351 3.146,0.356 1.099,0.01 2.202,0 3.3,0 1.099,0 2.202,0.054 3.3,-0.01 1.935,-0.114 3.889,-0.262 5.799,-0.49 2.375,-0.282 4.799,-0.603 7.115,-1.202 3.765,-0.97 7.54,-1.915 11.162,-3.414 2.651,-1.093 5.289,-2.197 7.807,-3.557 2.211,-1.198 4.349,-2.529 6.382,-4.038 1.43,-1.058 2.672,-2.28 3.879,-3.542 2.202,-2.301 4.176,-5.279 5.467,-9.282 0.777,-2.414 1.297,-4.809 1.208,-7.342 -0.05,-1.371 0.099,-2.761 -0.04,-4.121 -0.168,-1.707 0.346,-3.325 0.5,-4.983 0.148,-1.573 0.628,-3.156 1.217,-4.636 0.702,-1.776 1.603,-3.493 2.751,-5.041 0.678,-0.911 1.365,-1.836 2.201,-2.588 1.168,-1.059 2.425,-2.033 3.731,-2.919 1.247,-0.841 2.33,-1.84 3.305,-2.949 1.687,-1.929 3.805,-3.339 5.962,-4.581 1.331,-0.762 2.919,-1.4 4.601,-1.316 0.411,0.02 0.826,0.025 1.237,0 2.706,-0.178 4.854,1.019 7.016,2.513 2.32,1.598 3.641,3.869 5.061,6.145 2.009,3.236 3.993,6.481 6.14,9.623 1.88,2.761 3.973,5.368 5.952,8.065 1.257,1.722 2.706,3.285 4.057,4.928 3.132,3.814 6.828,7.065 10.252,10.588 3.448,3.547 7.04,6.961 10.469,10.533 1.845,1.925 3.493,4.037 4.556,6.556 1.114,2.647 1.173,5.378 0.733,8.074 -0.614,3.701 -2.346,6.887 -4.028,10.103 -1.435,2.736 -1.192,5.388 -0.148,8.094 0.574,1.48 1.187,2.954 1.905,4.364 0.791,1.539 1.716,3.008 2.597,4.498 1.311,2.226 2.89,4.284 4.72,6.065 2.197,2.138 4.656,3.983 7.362,5.542 1.663,0.964 3.37,1.865 5.057,2.77 2.597,1.4 5.14,2.88 7.644,4.428 1.707,1.059 3.359,2.212 5.012,3.35 1.449,0.994 2.884,2.019 4.299,3.063 0.797,0.593 1.509,1.306 2.321,1.875 0.92,0.643 1.89,0.994 3.112,0.984 10.657,-0.069 21.314,-0.039 32.07,-0.039 1.524,-1.895 3.869,-2.672 5.932,-3.869 2.82,-1.638 5.819,-2.964 8.54,-4.78 0.737,-0.494 1.588,-0.806 2.385,-1.212 2.439,-1.252 4.927,-2.414 7.302,-3.775 2.825,-1.628 5.759,-3.062 8.56,-4.725 2.701,-1.603 5.605,-2.835 8.178,-4.7 1.563,-1.138 2.795,-2.563 4.126,-3.899 0.535,-0.544 0.886,-1.494 0.891,-2.266 0.005,-0.688 -0.435,-1.514 -0.93,-2.043 -1.579,-1.702 -3.533,-2.781 -5.789,-3.429 -1.267,-0.366 -2.499,-0.346 -3.76,-0.366 -2.964,-0.05 -5.749,-0.777 -8.505,-1.885 -3.196,-1.282 -6.338,-2.657 -9.341,-4.324 -2.241,-1.247 -4.537,-2.385 -6.679,-3.83 -1.599,-1.078 -3.291,-2.033 -4.864,-3.166 -1.801,-1.296 -3.597,-2.603 -5.408,-3.879 -2.033,-1.43 -3.918,-3.048 -6.006,-4.408 -1.489,-0.97 -2.791,-2.222 -4.201,-3.32 -2.983,-2.326 -6.095,-4.468 -9.242,-6.561 -2.889,-1.92 -5.952,-3.518 -9.108,-4.908 -3.147,-1.39 -6.388,-2.558 -9.757,-3.349 -1.524,-0.357 -3.127,-0.48 -4.581,-0.911 -1.406,-0.415 -2.816,0.074 -4.122,-0.47 -1.321,-0.549 -2.686,-0.133 -4.027,-0.232 -0.5,-0.035 -1.108,-0.263 -1.509,0.311 -3.295,0.525 -6.585,1.277 -9.93,0.846 -1.014,-0.128 -2.083,-0.188 -3.077,-0.494 -1.035,-0.317 -2.049,-0.698 -3.053,-1.099 -0.94,-0.381 -1.88,-0.772 -2.781,-1.247 -0.91,-0.474 -1.801,-0.999 -2.642,-1.593 -2.993,-2.102 -5.69,-4.571 -8.074,-7.322 -1.148,-1.331 -2.385,-2.568 -3.543,-3.874 -2.251,-2.548 -4.66,-4.963 -6.58,-7.793 -0.559,-0.821 -1.222,-1.573 -1.89,-2.31 -2.34,-2.583 -4.186,-5.532 -6.165,-8.381 -0.846,-1.222 -1.603,-2.514 -2.488,-3.706 -0.931,-1.252 -1.574,-2.672 -2.365,-3.988 -1.796,-3.003 -3.375,-6.15 -4.834,-9.331 -0.925,-2.019 -1.88,-4.037 -2.672,-6.11 -0.772,-2.024 -1.737,-3.983 -2.395,-6.017 -0.89,-2.731 -2.038,-5.358 -2.835,-8.114 -0.267,-0.93 -0.385,-1.905 -0.564,-2.859 -0.836,-4.463 0.015,-8.99 -0.479,-13.438 -0.55,-4.903 -0.233,-9.792 -0.327,-14.685 -0.094,-4.952 -0.02,-9.9 -0.02,-14.852 0,-4.948 0.02,-9.901 -0.02,-14.848 -0.009,-0.98 -0.282,-1.95 -0.386,-2.924 -0.098,-0.916 -0.128,-1.811 -0.336,-2.736 -0.322,-1.44 0.01,-3.013 -0.104,-4.517 -0.302,-3.998 1.341,-7.377 3.399,-10.554 1.049,-1.623 2.459,-3.072 3.934,-4.334 1.004,-0.856 2.27,-1.88 3.844,-0.841 0.193,0.129 0.534,0.02 0.806,0.02 -1.568,-2.227 -2.553,-4.611 -2.498,-7.427 0.089,-4.739 0.024,-9.484 0.024,-14.224 v -14.224 c 0,-4.809 0.07,-9.618 -0.019,-14.427 -0.094,-4.686 0.435,-9.391 -0.391,-14.057 -0.302,-1.692 0.41,-3.31 0.41,-4.982 0,-1.138 0.644,-3.265 1.168,-4.67 1.217,-3.286 3.736,-5.477 6.259,-7.679 -0.099,-0.163 -0.154,-0.386 -0.297,-0.485 -1.455,-1.054 -1.588,-2.637 -1.781,-4.225 -0.094,-0.772 0.381,-1.405 0.396,-2.098 0.044,-1.944 0.945,-3.612 1.726,-5.269 0.683,-1.45 1.732,-2.736 2.682,-4.047 1.969,-2.697 3.988,-5.354 5.967,-8.045 0.999,-1.366 1.924,-2.781 2.924,-4.146 1.583,-2.167 3.206,-4.305 4.799,-6.467 1.281,-1.732 2.533,-3.483 3.8,-5.229 1.261,-1.742 2.518,-3.493 3.785,-5.235 1.345,-1.846 2.696,-3.696 4.052,-5.531 1.365,-1.846 2.79,-3.647 4.091,-5.527 0.96,-1.395 2.044,-2.691 2.969,-4.121 1.004,-1.544 2.291,-2.905 3.458,-4.344 1.168,-1.44 2.37,-2.88 3.434,-4.374 1.643,-2.301 3.528,-4.403 5.185,-6.689 1.425,-1.974 3.132,-3.76 4.463,-5.794 1.415,-2.162 2.414,-4.571 2.37,-7.243 -0.01,-0.911 -0.198,-1.826 -0.411,-2.711 -0.143,-0.614 -0.485,-1.173 -0.707,-1.767 -0.743,-1.979 -1.544,-3.943 -1.747,-6.08 -1.232,-0.297 -2.449,0.168 -3.503,0.519 -1.543,0.525 -3.146,0.911 -4.685,1.034 -1.727,0.139 -3.424,0.535 -5.18,0.535 -41.075,-0.03 -82.15,-0.025 -123.23,-0.02 -2.791,0 -5.388,-0.673 -7.798,-2.068 0,0.549 0.084,1.118 -0.02,1.647 -0.173,0.876 -0.336,1.796 -0.737,2.573 -1.019,1.994 -1.544,4.097 -1.697,6.298 -0.03,0.485 0.376,0.99 0.366,1.48 -0.034,1.36 0.51,2.518 1.064,3.691 1.697,3.611 4.22,6.674 6.56,9.855 1.312,1.796 2.638,3.577 3.949,5.373 1.266,1.742 2.508,3.498 3.775,5.24 1.345,1.85 2.711,3.686 4.062,5.531 1.276,1.737 2.538,3.483 3.804,5.225 1.346,1.85 2.687,3.701 4.038,5.541 1.321,1.796 2.666,3.567 3.973,5.368 1.306,1.791 2.612,3.578 3.854,5.413 1.38,2.029 2.8,4.042 3.983,6.185 1.093,1.969 2.31,3.849 3.453,5.778 1.336,2.257 2.924,4.335 4.611,6.328 0.841,0.995 1.791,1.905 2.766,2.771 1.796,1.603 2.355,3.696 2.528,5.972 0.04,0.514 -0.218,1.113 0.376,1.489 0.272,2.32 -0.861,4.468 -3.265,4.369 0.638,0.688 1.153,1.672 1.939,1.989 0.995,0.401 1.356,1.39 2.34,1.811 0.886,0.381 1.48,1.464 2.138,2.315 1.088,1.4 1.949,2.875 2.746,4.448 0.831,1.638 0.969,3.439 1.519,5.141 0.262,0.811 -0.01,1.776 0.059,2.666 0.069,0.906 0.366,1.806 0.381,2.717 0.044,3.775 0.015,7.555 0.015,11.335 v 11.339 11.133 c 0,3.775 0.074,7.56 -0.02,11.335 -0.089,3.72 0.351,7.451 -0.351,11.176 -0.356,1.89 -0.04,3.849 -0.352,5.814 -0.301,1.87 -0.499,3.775 -0.959,5.61 C 0.559,-1.841 0.574,-0.826 0,0" /></g><g
           transform="translate(48.1873,17.9834)"
           id="g64"><path
             id="path66"
             style="fill:#47478c;fill-opacity:1;fill-rule:nonzero;stroke:none"
             d="m 0,0 c 2.414,1.39 5.007,2.068 7.802,2.068 41.075,-0.01 82.155,-0.01 123.231,0.015 1.751,0 3.448,-0.396 5.18,-0.534 1.533,-0.119 3.141,-0.51 4.685,-1.029 1.054,-0.357 2.266,-0.822 3.498,-0.52 0.109,-0.139 0.188,-0.341 0.332,-0.401 1.622,-0.727 3.29,-1.36 4.878,-2.152 1.598,-0.806 3.28,-1.366 4.943,-2.004 1.919,-0.737 3.676,-0.396 5.472,0.416 1.974,0.895 3.28,2.513 4.556,4.126 0.629,0.792 0.99,1.791 0.891,2.934 -0.094,1.128 -0.49,2.142 -0.945,3.122 -1.504,3.226 -3.77,5.942 -6.1,8.594 -0.495,0.569 -1.143,1.014 -1.584,1.618 -1.637,2.266 -3.137,4.636 -4.843,6.842 -1.96,2.539 -3.711,5.22 -5.651,7.768 -0.583,0.767 -1.039,1.638 -1.617,2.415 -1.326,1.791 -2.746,3.517 -4.033,5.338 -1.756,2.489 -3.325,5.111 -5.16,7.535 -2.326,3.078 -4.502,6.259 -6.813,9.346 -1.445,1.93 -2.815,3.914 -4.23,5.868 -1.113,1.534 -2.306,3.013 -3.33,4.602 -1.098,1.711 -2.36,3.29 -3.567,4.912 -1.118,1.505 -1.989,3.202 -3.181,4.641 -1.806,2.177 -3.365,4.532 -5.007,6.813 -2.43,3.389 -4.72,6.872 -7.313,10.153 -1.465,1.86 -3.013,3.572 -4.967,4.888 -1.218,0.821 -2.36,1.811 -3.889,2.053 -2.524,2.202 -5.042,4.394 -6.259,7.679 -0.519,1.405 -1.163,3.532 -1.163,4.67 -0.005,1.673 -0.712,3.286 -0.415,4.983 0.826,4.665 0.302,9.366 0.391,14.051 0.094,4.809 0.019,9.623 0.019,14.432 v 14.224 c 0,4.74 0.065,9.48 -0.024,14.22 -0.05,2.815 0.93,5.2 2.503,7.426 1.202,1.767 1.94,3.706 2.548,5.764 0.381,1.282 0.688,2.593 1.049,3.879 0.371,1.321 0.5,2.741 0.505,4.122 0.039,10.38 -0.025,20.765 0.049,31.145 0.025,3.231 1.227,6.13 3.602,8.381 1.019,0.97 2.246,1.727 3.493,2.459 2.825,1.662 5.71,3.206 8.48,4.972 3.276,2.088 6.501,4.245 9.722,6.412 0.921,0.624 2.088,0.965 3.315,0.965 1.737,0 3.335,-0.163 4.918,-1.118 1.752,-1.054 2.835,-2.563 3.523,-4.314 0.643,-1.628 1.064,-3.379 0.895,-5.21 -0.099,-1.024 0.035,-2.063 -0.034,-3.092 -0.065,-0.911 -0.169,-1.836 -0.416,-2.712 -0.519,-1.801 -1.331,-3.478 -2.558,-4.918 -2.137,-2.523 -5.012,-3.908 -8.01,-5.051 -2.894,-1.103 -4.977,-3.132 -6.734,-5.576 -0.45,-1.88 -1.256,-3.676 -1.251,-5.67 0.009,-31.012 -0.015,-62.018 0.044,-93.03 0.005,-2.706 0.732,-5.348 1.737,-7.926 1.148,-2.924 2.998,-5.383 4.7,-7.956 1.791,-2.711 3.696,-5.358 5.615,-7.96 1.752,-2.375 3.385,-4.859 5.304,-7.12 1.005,-1.178 1.752,-2.573 2.657,-3.839 1.138,-1.599 2.316,-3.172 3.498,-4.74 2.321,-3.083 4.587,-6.214 6.793,-9.371 1.742,-2.494 3.513,-4.982 5.235,-7.491 1.296,-1.88 2.602,-3.799 4.131,-5.541 1.192,-1.366 2.142,-2.949 3.196,-4.438 1.282,-1.811 2.533,-3.632 3.835,-5.423 1.311,-1.806 2.681,-3.562 4.002,-5.358 1.356,-1.84 2.672,-3.706 4.018,-5.556 1.266,-1.747 2.553,-3.483 3.824,-5.225 1.351,-1.845 2.692,-3.696 4.052,-5.541 1.207,-1.633 2.514,-3.196 3.622,-4.898 1.356,-2.088 2.954,-3.988 4.413,-6.002 2.083,-2.874 4.151,-5.749 5.067,-9.247 0.277,-1.059 0.682,-2.107 0.603,-3.265 -0.079,-1.163 -0.015,-2.335 -0.015,-3.508 -0.01,-2.202 -0.915,-4.087 -1.86,-6.036 -1.118,-2.301 -2.756,-4.097 -4.601,-5.705 -1.846,-1.608 -3.76,-3.161 -6.224,-3.884 -0.688,-0.202 -1.316,-0.212 -1.96,-0.217 -11.76,-0.02 -23.516,-0.015 -35.271,-0.015 -5.913,-0.831 -11.85,-0.302 -17.777,-0.391 -5.982,-0.094 -11.963,-0.02 -17.945,-0.02 H 83.926 65.981 48.036 30.091 11.939 -6.006 c -5.982,0 -11.964,-0.084 -17.945,0.04 -2.786,0.054 -5.571,0.445 -8.189,1.598 -2.147,0.945 -4.131,2.137 -5.912,3.641 -1.277,1.074 -2.202,2.469 -3.068,3.879 -0.564,0.925 -1.103,1.861 -1.39,2.934 -0.138,0.52 -0.782,2.776 -0.811,3.167 -0.337,3.854 0.955,7.302 2.612,10.677 2.103,4.279 4.676,8.292 7.372,12.191 1.598,2.305 3.186,4.66 5.012,6.822 1.173,1.386 2.108,2.969 3.161,4.458 1.623,2.286 3.261,4.562 4.884,6.848 0.979,1.375 1.939,2.77 2.919,4.151 1.355,1.914 2.696,3.844 4.091,5.729 1.599,2.162 3.167,4.339 4.785,6.486 1.558,2.068 2.795,4.394 4.433,6.388 1.801,2.191 3.384,4.537 5.002,6.837 1.489,2.113 3.063,4.191 4.522,6.333 1.281,1.885 2.593,3.805 4.121,5.546 1.198,1.366 2.143,2.954 3.197,4.443 1.276,1.806 2.548,3.622 3.834,5.423 1.326,1.86 2.657,3.716 4.008,5.556 1.667,2.271 3.374,4.512 5.026,6.793 1.851,2.558 3.691,5.111 4.889,8.08 0.752,1.855 1.207,3.77 1.682,5.704 0.499,2.024 0.346,4.023 0.351,6.031 0.02,29.498 0,58.991 0.025,88.488 0.005,5.19 -2.232,9.06 -6.501,11.87 -1.722,1.133 -3.607,1.969 -5.294,3.206 -1.114,0.811 -1.93,1.87 -2.989,2.696 -1.608,1.252 -2.563,2.969 -3.384,4.785 -0.069,0.158 -0.821,3.018 -0.821,3.161 0,0.554 0.025,1.103 -0.005,1.653 -0.158,2.765 0.712,5.284 2.098,7.579 1.014,1.673 2.384,3.112 4.096,4.137 1.148,0.687 2.454,0.623 3.662,0.237 2.617,-0.836 4.932,-2.216 6.995,-4.047 0.975,-0.866 2.014,-1.717 3.157,-2.321 2.949,-1.563 5.744,-3.379 8.663,-4.977 2.533,-1.39 4.943,-2.929 7.031,-4.957 1.826,-1.777 2.919,-3.953 3.76,-6.289 0.173,-0.485 0.069,-1.063 0.153,-1.588 0.129,-0.782 0.297,-1.519 0.035,-2.35 -0.252,-0.792 0.134,-1.702 -0.416,-2.523 -0.222,-0.337 -0.039,-0.94 -0.039,-1.42 0,-6.739 0.03,-13.478 -0.01,-20.216 -0.02,-2.608 0.792,-4.968 1.855,-7.283 0.559,-1.212 1.099,-2.434 1.455,-3.726 0.574,-0.831 0.559,-1.84 0.792,-2.76 0.46,-1.841 0.663,-3.741 0.959,-5.611 0.312,-1.964 -0.005,-3.923 0.357,-5.818 0.697,-3.721 0.257,-7.452 0.351,-11.172 0.089,-3.78 0.02,-7.56 0.02,-11.34 v -11.132 -11.335 c 0,-3.78 0.024,-7.56 -0.02,-11.34 -0.01,-0.905 -0.307,-1.806 -0.381,-2.716 -0.064,-0.886 0.203,-1.856 -0.059,-2.662 -0.55,-1.702 -0.683,-3.508 -1.514,-5.146 -0.797,-1.568 -1.663,-3.042 -2.751,-4.443 -0.658,-0.851 -1.247,-1.934 -2.133,-2.315 -0.989,-0.426 -1.345,-1.415 -2.34,-1.811 C 48.6,97.799 48.081,96.815 47.443,96.127 47.002,96.201 46.636,96.083 46.389,95.687 46.186,95.36 46.038,94.994 45.8,94.697 44.499,93.099 43.153,91.541 41.877,89.928 40.58,88.28 39.373,86.558 38.072,84.911 36.751,83.244 35.326,81.66 34.005,79.993 32.13,77.623 30.334,75.184 28.454,72.814 26.643,70.528 24.728,68.322 22.932,66.026 21.324,63.963 19.919,61.731 18.227,59.742 16.307,57.481 14.729,54.973 12.913,52.638 10.84,49.976 8.96,47.141 7.095,44.331 4.26,40.061 1.306,35.885 -1.573,31.655 c -1.401,-2.053 -2.929,-4.013 -4.359,-6.036 -1.252,-1.772 -2.444,-3.582 -3.934,-5.175 -0.727,-0.777 -1.484,-1.559 -2.023,-2.459 -1.272,-2.118 -3.092,-3.78 -4.567,-5.73 -0.885,-1.167 -1.979,-2.182 -2.939,-3.3 -1.85,-2.147 -2.285,-4.552 -2.043,-7.208 0.02,-0.233 0.272,-0.436 0.351,-0.678 0.757,-2.321 2.652,-3.558 4.641,-4.567 1.118,-0.569 2.434,-0.806 3.691,-1.019 1.667,-0.277 3.335,0.109 4.888,0.618 C -5.076,-2.974 -2.489,-1.568 0,0" /></g></g></g></g></svg>